<svg width="144" height="141" viewBox="0 0 144 141" fill="none" xmlns="http://www.w3.org/2000/svg">
<path fill-rule="evenodd" clip-rule="evenodd" d="M96 25C96 38.8071 84.8071 50 71 50C67.5088 50 64.1848 49.2844 61.1666 47.9918C57.5006 46.4219 53.0539 46.4454 50.1591 49.1885C47.2376 51.9569 46.9988 56.4477 48.4132 60.2159C49.439 62.9487 50 65.9089 50 69C50 82.8071 38.8071 94 25 94C11.1929 94 0 82.8071 0 69C0 55.1929 11.1929 44 25 44C28.55 44 31.9273 44.74 34.9859 46.074C38.6266 47.6621 43.0598 47.6498 45.943 44.9177C48.8528 42.1605 49.0795 37.6829 47.6457 33.9394C46.5825 31.1636 46 28.1498 46 25C46 11.1929 57.1929 0 71 0C84.8071 0 96 11.1929 96 25Z" fill="white"/>
<path fill-rule="evenodd" clip-rule="evenodd" d="M144 72C144 85.8071 132.807 97 119 97C115.509 97 112.185 96.2844 109.167 94.9918C105.501 93.4219 101.054 93.4454 98.1591 96.1885C95.2376 98.9569 94.9988 103.448 96.4132 107.216C97.439 109.949 98 112.909 98 116C98 129.807 86.8071 141 73 141C59.1929 141 48 129.807 48 116C48 102.193 59.1929 91 73 91C76.55 91 79.9273 91.74 82.9858 93.074C86.6266 94.6621 91.0598 94.6498 93.943 91.9177C96.8528 89.1605 97.0795 84.6829 95.6457 80.9394C94.5825 78.1636 94 75.1498 94 72C94 58.1929 105.193 47 119 47C132.807 47 144 58.1929 144 72Z" fill="white"/>
</svg>
