<svg width="27" height="26" viewBox="0 0 27 26" fill="none" xmlns="http://www.w3.org/2000/svg">
<path fill-rule="evenodd" clip-rule="evenodd" d="M17.532 4.93542C17.532 7.38504 15.5462 9.37084 13.0966 9.37084C12.4772 9.37084 11.8875 9.24389 11.352 9.01457C10.7016 8.73604 9.91266 8.74022 9.39908 9.22688C8.88075 9.71805 8.83839 10.5148 9.08933 11.1833C9.27131 11.6682 9.37084 12.1933 9.37084 12.7418C9.37084 15.1914 7.38504 17.1772 4.93542 17.1772C2.48581 17.1772 0.5 15.1914 0.5 12.7418C0.5 10.2921 2.48581 8.30634 4.93542 8.30634C5.56527 8.30634 6.16446 8.43763 6.70711 8.67432C7.35304 8.95607 8.13954 8.9539 8.65106 8.46919C9.1673 7.98 9.20752 7.18561 8.95314 6.52147C8.7645 6.02897 8.66115 5.49427 8.66115 4.93542C8.66115 2.48581 10.647 0.5 13.0966 0.5C15.5462 0.5 17.532 2.48581 17.532 4.93542Z" fill="#17C37B"/>
<path fill-rule="evenodd" clip-rule="evenodd" d="M26.0482 13.274C26.0482 15.7237 24.0624 17.7095 21.6128 17.7095C20.9934 17.7095 20.4036 17.5825 19.8681 17.3532C19.2177 17.0746 18.4288 17.0788 17.9152 17.5655C17.3969 18.0567 17.3545 18.8534 17.6054 19.522C17.7874 20.0068 17.887 20.532 17.887 21.0804C17.887 23.53 15.9012 25.5158 13.4515 25.5158C11.0019 25.5158 9.01611 23.53 9.01611 21.0804C9.01611 18.6308 11.0019 16.645 13.4515 16.645C14.0814 16.645 14.6805 16.7762 15.2232 17.0129C15.8691 17.2947 16.6557 17.2925 17.1672 16.8078C17.6835 16.3186 17.7237 15.5242 17.4693 14.86C17.2807 14.3675 17.1773 13.8329 17.1773 13.274C17.1773 10.8244 19.1631 8.83862 21.6128 8.83862C24.0624 8.83862 26.0482 10.8244 26.0482 13.274Z" fill="#17C37B"/>
</svg>
